HIERARCHY
ROOT hip
{
  OFFSET 0.0670092 88.5999 -15.0588
  CHANNELS 6 Xposition Yposition Zposition Zrotation Xrotation Yrotation
  JOINT abdomen
  {
    OFFSET 0 6.09653 0.699602
    CHANNELS 3 Zrotation Xrotation Yrotation
    JOINT chest
    {
      OFFSET 0 2.49857 -0.699602
      CHANNELS 3 Zrotation Xrotation Yrotation
      JOINT lCollar
      {
        OFFSET 1.49915 11.2936 -1.69903
        CHANNELS 3 Zrotation Xrotation Yrotation
        JOINT lShldr
        {
          OFFSET 4.89721 -0.299833 0.799545
          CHANNELS 3 Zrotation Xrotation Yrotation
          JOINT lForeArm
          {
            OFFSET 12.4216 -1.19922 0.931564
            CHANNELS 3 Zrotation Xrotation Yrotation
            JOINT lHand
            {
              OFFSET 9.86568 0.0998482 3.66582
              CHANNELS 3 Zrotation Xrotation Yrotation
              JOINT lThumb1
              {
                OFFSET 0.399772 -0.399773 1.19932
                CHANNELS 3 Zrotation Xrotation Yrotation
                JOINT lThumb2
                {
                  OFFSET 0.99813 0 1.47145
                  CHANNELS 3 Zrotation Xrotation Yrotation
                  End Site
                  {
                    OFFSET 0.97784 -0.27884 0.829828
                  }
                }
              }
              JOINT lIndex1
              {
                OFFSET 2.69846 0.399775 2.09881
                CHANNELS 3 Zrotation Xrotation Yrotation
                JOINT lIndex2
                {
                  OFFSET 1.33823 -0.200884 0.6843
                  CHANNELS 3 Zrotation Xrotation Yrotation
                  End Site
                  {
                    OFFSET 0.760567 0.00099574 0.415074
                  }
                }
              }
              JOINT lRing1
              {
                OFFSET 3.39806 0.399773 0.299829
                CHANNELS 3 Zrotation Xrotation Yrotation
                JOINT lRing2
                {
                  OFFSET 1.29926 -0.199886 0.399772
                  CHANNELS 3 Zrotation Xrotation Yrotation
                  End Site
                  {
                    OFFSET 0.899489 -0.0999425 0.199886
                  }
                }
              }
              JOINT lMid1
              {
                OFFSET 2.99829 0.499714 1.09937
                CHANNELS 3 Zrotation Xrotation Yrotation
                JOINT lMid2
                {
                  OFFSET 1.45827 -0.0999388 0.600149
                  CHANNELS 3 Zrotation Xrotation Yrotation
                  End Site
                  {
                    OFFSET 1.04031 -0.0999473 0.399282
                  }
                }
              }
              JOINT lPinky1
              {
                OFFSET 3.29812 0.0999421 -0.399772
                CHANNELS 3 Zrotation Xrotation Yrotation
                JOINT lPinky2
                {
                  OFFSET 0.899488 -0.0999427 0
                  CHANNELS 3 Zrotation Xrotation Yrotation
                  End Site
                  {
                    OFFSET 0.999427 -0.0999418 0
                  }
                }
              }
            }
          }
        }
      }
      JOINT rCollar
      {
        OFFSET -1.49915 11.2936 -1.69903
        CHANNELS 3 Zrotation Xrotation Yrotation
        JOINT rShldr
        {
          OFFSET -4.89721 -0.299829 0.799545
          CHANNELS 3 Zrotation Xrotation Yrotation
          JOINT rForeArm
          {
            OFFSET -12.4216 -1.19922 0.931564
            CHANNELS 3 Zrotation Xrotation Yrotation
            JOINT rHand
            {
              OFFSET -9.86568 0.0998477 3.66582
              CHANNELS 3 Zrotation Xrotation Yrotation
              JOINT rIndex1
              {
                OFFSET -2.69847 0.399775 2.09881
                CHANNELS 3 Zrotation Xrotation Yrotation
                JOINT rIndex2
                {
                  OFFSET -1.33823 -0.200883 0.6843
                  CHANNELS 3 Zrotation Xrotation Yrotation
                  End Site
                  {
                    OFFSET -0.760569 0.00099747 0.415074
                  }
                }
              }
              JOINT rThumb1
              {
                OFFSET -0.399773 -0.39977 1.19932
                CHANNELS 3 Zrotation Xrotation Yrotation
                JOINT rThumb2
                {
                  OFFSET -0.998132 0 1.47145
                  CHANNELS 3 Zrotation Xrotation Yrotation
                  End Site
                  {
                    OFFSET -0.977841 -0.278837 0.829828
                  }
                }
              }
              JOINT rMid1
              {
                OFFSET -2.99829 0.499717 1.09937
                CHANNELS 3 Zrotation Xrotation Yrotation
                JOINT rMid2
                {
                  OFFSET -1.45827 -0.0999391 0.600149
                  CHANNELS 3 Zrotation Xrotation Yrotation
                  End Site
                  {
                    OFFSET -1.0403 -0.0999474 0.399282
                  }
                }
              }
              JOINT rRing1
              {
                OFFSET -3.39807 0.399775 0.299829
                CHANNELS 3 Zrotation Xrotation Yrotation
                JOINT rRing2
                {
                  OFFSET -1.29926 -0.199888 0.399772
                  CHANNELS 3 Zrotation Xrotation Yrotation
                  End Site
                  {
                    OFFSET -0.899487 -0.0999402 0.199886
                  }
                }
              }
              JOINT rPinky1
              {
                OFFSET -3.29812 0.0999423 -0.399772
                CHANNELS 3 Zrotation Xrotation Yrotation
                JOINT rPinky2
                {
                  OFFSET -0.899492 -0.0999405 0
                  CHANNELS 3 Zrotation Xrotation Yrotation
                  End Site
                  {
                    OFFSET -0.999429 -0.0999421 0
                  }
                }
              }
            }
          }
        }
      }
      JOINT neck
      {
        OFFSET 0 12.4929 -0.499715
        CHANNELS 3 Zrotation Xrotation Yrotation
        JOINT head
        {
          OFFSET 0 3.59795 0.299829
          CHANNELS 3 Zrotation Xrotation Yrotation
          JOINT leftEye
          {
            OFFSET 1.19932 3.69789 3.19818
            CHANNELS 3 Zrotation Xrotation Yrotation
            End Site
            {
              OFFSET 0 0 0
            }
          }
          JOINT rightEye
          {
            OFFSET -1.19932 3.69789 3.19818
            CHANNELS 3 Zrotation Xrotation Yrotation
            End Site
            {
              OFFSET 0 0 0
            }
          }
        }
      }
    }
  }
  JOINT lButtock
  {
    OFFSET 4.19761 -0.599656 -0.299829
    CHANNELS 3 Zrotation Xrotation Yrotation
    JOINT lThigh
    {
      OFFSET 0 -1.49914 0
      CHANNELS 3 Zrotation Xrotation Yrotation
      JOINT lShin
      {
        OFFSET -0.699602 -17.6899 -1.09937
        CHANNELS 3 Zrotation Xrotation Yrotation
        JOINT lFoot
        {
          OFFSET 0.699602 -18.0897 -0.699602
          CHANNELS 3 Zrotation Xrotation Yrotation
          End Site
          {
            OFFSET 0 -2.0988 5.59681
          }
        }
      }
    }
  }
  JOINT rButtock
  {
    OFFSET -4.19761 -0.599656 -0.299829
    CHANNELS 3 Zrotation Xrotation Yrotation
    JOINT rThigh
    {
      OFFSET 0 -1.49915 0
      CHANNELS 3 Zrotation Xrotation Yrotation
      JOINT rShin
      {
        OFFSET 0.699602 -17.6899 -1.09938
        CHANNELS 3 Zrotation Xrotation Yrotation
        JOINT rFoot
        {
          OFFSET -0.699602 -18.0897 -0.699602
          CHANNELS 3 Zrotation Xrotation Yrotation
          End Site
          {
            OFFSET 0 -2.09881 5.59681
          }
        }
      }
    }
  }
}
MOTION
Frames:	4
Frame Time:	0.0333333
-0.275904 88.6235 -13.2231 1.4156 -2.26498 -2.58848 -0.00975517 -0.00975351 -0.00975351 -1.97488 6.02469 0.0807381 -2.47852 1.03028 -19.7221 -68.1274 17.9493 3.25853 53.5514 6.28542 -66.5533 -3.29475 0.835696 8.96973 -1.87818 1.06148 -28.0917 9.40787 -7.94586 0.599069 -1.9021 1.09707 -28.0878 -8.62296 -0.0232223 1.79819 -1.90886 1.07496 -28.0899 -2.42852 -0.502379 -4.43241 -1.91292 1.08254 -28.0857 0.181554 0.424301 -1.45108 -1.89042 1.0819 -28.0686 -0.629934 -0.0099583 0.00100886 2.95905 0.267982 9.46574 69.2333 28.7841 -3.51498 -51.2998 3.51932 68.0124 13.6237 4.10214 -6.86801 1.84096 1.04188 28.023 8.61171 -0.00190224 -1.79828 1.8765 1.0053 28.0257 -9.40282 -7.91099 -0.69994 1.83855 1.02151 28.0115 -0.243675 0.394432 1.44876 1.84463 1.02332 28.0095 2.42704 -0.497593 4.4329 1.83954 1.02676 28.0275 0.629422 -0.00953168 -0.00095246 1.95961 -6.02526 0.114496 -6.51395 -21.5938 -15.1403 0 0 0 0 0 0 -0.00975517 -0.00983547 -0.00969887 7.12009 -77.1698 8.15876 -17.5724 79.5685 6.45188 -1.98228 -0.34153 0.0575985 -0.00975517 -0.00969887 -0.00983547 -6.8011 -78.4074 -1.6141 17.8469 79.8163 -5.44265 5.10024 0.733763 -0.258817 
-0.273965 88.624 -13.2243 1.4156 -2.27474 -2.59825 -0.00975517 -0.00975351 -0.00975351 -1.95534 6.03445 0.0904999 -2.46677 1.02765 -19.733 -68.1639 17.9819 3.22784 53.4044 6.2886 -66.5321 -3.29682 0.833507 9.03795 -1.87818 1.06148 -28.0917 9.40787 -7.94586 0.599069 -1.9021 1.09707 -28.0878 -8.62296 -0.0232223 1.79819 -1.90886 1.07496 -28.0899 -2.42852 -0.502379 -4.43241 -1.91292 1.08254 -28.0857 0.181554 0.424301 -1.45108 -1.89042 1.0819 -28.0686 -0.629934 -0.0099583 0.00100886 2.96214 0.268445 9.46448 69.2331 28.832 -3.51626 -51.1342 3.50283 68.0116 13.6048 4.08097 -6.97751 1.84096 1.04187 28.023 8.61171 -0.00190224 -1.79828 1.8765 1.0053 28.0257 -9.40282 -7.91099 -0.69994 1.83855 1.02151 28.0115 -0.243675 0.394432 1.44876 1.84463 1.02332 28.0095 2.42704 -0.497593 4.4329 1.83954 1.02676 28.0275 0.629422 -0.00953168 -0.00095246 1.93897 -6.03502 0.105312 -6.35145 -21.552 -14.7832 0 0 0 0 0 0 -0.00975517 -0.00983547 -0.00969887 6.98555 -77.1602 7.99404 -17.5523 79.5596 6.46905 -1.99266 -0.312454 0.0596008 -0.00975517 -0.00969887 -0.00983547 -6.50612 -78.3983 -1.25013 17.8222 79.8071 -5.47404 5.15993 0.725151 -0.260801 
-0.270848 88.6246 -13.225 1.4156 -2.26497 -2.59825 -0.00975517 -0.00975351 -0.00975351 -1.93581 6.0247 0.0904896 -2.47058 1.02811 -19.7191 -68.1866 18.048 3.22863 53.2905 6.26257 -66.5326 -3.29832 0.830332 9.12626 -1.87818 1.06148 -28.0917 9.40787 -7.94586 0.599069 -1.9021 1.09707 -28.0878 -8.62296 -0.0232223 1.79819 -1.90886 1.07496 -28.0899 -2.42852 -0.502379 -4.43241 -1.91292 1.08254 -28.0857 0.181554 0.424301 -1.45108 -1.89042 1.0819 -28.0686 -0.629934 -0.0099583 0.00100886 2.96809 0.268515 9.44178 69.2034 28.8899 -3.50861 -51.2224 3.46622 68.0418 13.633 4.09138 -6.96522 1.84096 1.04187 28.023 8.61171 -0.00190224 -1.79828 1.8765 1.0053 28.0257 -9.40282 -7.91099 -0.69994 1.83855 1.02151 28.0115 -0.243675 0.394432 1.44876 1.84463 1.02332 28.0095 2.42704 -0.497593 4.4329 1.83954 1.02676 28.0275 0.629422 -0.00953168 -0.00095246 1.91829 -6.03502 0.0957979 -6.16434 -21.5013 -14.4005 0 0 0 0 0 0 -0.00975517 -0.00983547 -0.00969887 6.75064 -77.1799 7.71868 -17.5127 79.5413 6.49709 -2.01313 -0.302603 0.0608918 -0.00975517 -0.00969887 -0.00983547 -6.20042 -78.4085 -0.895356 17.7977 79.798 -5.50541 5.20953 0.725069 -0.263038 
-0.269579 88.6249 -13.2251 1.4156 -2.25521 -2.59824 -0.00975517 -0.00975351 -0.00975351 -1.93581 6.0247 0.0807241 -2.481 1.03116 -19.7286 -68.1787 18.0527 3.22968 53.3265 6.24723 -66.5466 -3.36643 0.850138 9.11454 -1.87818 1.06148 -28.0917 9.40787 -7.94586 0.599069 -1.9021 1.09707 -28.0878 -8.62296 -0.0232223 1.79819 -1.90886 1.07496 -28.0899 -2.42852 -0.502379 -4.43241 -1.91292 1.08254 -28.0857 0.181554 0.424301 -1.45108 -1.89042 1.0819 -28.0686 -0.629934 -0.0099583 0.00100886 2.96667 0.268714 9.45255 69.2003 28.936 -3.5126 -51.1673 3.43865 68.0561 13.6262 4.08357 -7.00595 1.84095 1.04186 28.023 8.61171 -0.00190224 -1.79828 1.8765 1.0053 28.0257 -9.40282 -7.91099 -0.69994 1.83855 1.02151 28.0115 -0.243675 0.394432 1.44876 1.84463 1.02332 28.0095 2.42704 -0.497593 4.4329 1.83954 1.02676 28.0275 0.629422 -0.00953168 -0.00095246 1.92062 -6.02526 0.11511 -5.95347 -21.4611 -13.9945 0 0 0 0 0 0 -0.00975517 -0.00983547 -0.00969887 6.52537 -77.1898 7.45289 -17.4696 79.523 6.54057 -2.0245 -0.272834 0.0629802 -0.00975517 -0.00969887 -0.00983547 -5.78888 -78.4191 -0.395047 17.7667 79.7893 -5.56925 5.28922 0.705582 -0.26499 
